<svg width="35" height="33" fill="none" xmlns="http://www.w3.org/2000/svg"><path d="M4.714 0v4.714H0v3.143h4.714v4.714h3.143V7.857h4.714V4.714H7.857V0H4.714zm11 4.714v3.143h14.143V11H20.43a3.152 3.152 0 00-3.143 3.143v9.428a3.152 3.152 0 003.143 3.143h9.428v3.143h-22V15.714H4.714v14.143A3.143 3.143 0 007.857 33h22A3.152 3.152 0 0033 29.857v-3.583a3.143 3.143 0 001.571-2.703v-9.428A3.143 3.143 0 0033 11.44V7.857a3.152 3.152 0 00-3.143-3.143H15.714zm4.715 9.429h11v9.428h-11v-9.428zm4.714 2.357a2.357 2.357 0 100 4.714 2.357 2.357 0 000-4.714z" fill="#9AC764"/></svg>