<svg width="48" height="40" fill="none" xmlns="http://www.w3.org/2000/svg"><g clip-path="url(#clip0)"><path fill-rule="evenodd" clip-rule="evenodd" d="M11.33 13.664h25.345v16.747c0 .994-.994 1.802-2.22 1.802h-2.539v5.1c.006.616-.29 1.21-.824 1.65-.534.439-1.261.689-2.022.694a3.454 3.454 0 01-1.097-.183 2.977 2.977 0 01-.927-.51 2.352 2.352 0 01-.615-.76 1.948 1.948 0 01-.21-.892v-5.1h-4.435v5.1c.003.306-.068.61-.21.893a2.35 2.35 0 01-.616.759c-.264.217-.58.39-.926.51-.348.119-.72.18-1.098.183a3.452 3.452 0 01-1.096-.184 2.975 2.975 0 01-.926-.51 2.35 2.35 0 01-.615-.759 1.948 1.948 0 01-.21-.892v-5.1h-2.537c-1.226 0-2.222-.807-2.222-1.8V13.663zm-4.967-.137c-1.588 0-2.875 1.06-2.875 2.369v9.254c0 1.306 1.287 2.367 2.875 2.367 1.589 0 2.876-1.061 2.876-2.367v-9.254c0-1.309-1.287-2.369-2.876-2.369zm30.312-1.551H11.33c.312-2.925 2.656-5.444 6.028-6.903L14.947 2.2a.785.785 0 01-.172-.306.692.692 0 01-.011-.338.763.763 0 01.151-.313.966.966 0 01.29-.242 1.19 1.19 0 01.384-.13 1.29 1.29 0 01.416.001 1.2 1.2 0 01.383.132.963.963 0 01.288.243l2.627 3.128a17.54 17.54 0 019.4 0l2.627-3.128a.977.977 0 01.29-.232 1.241 1.241 0 01.787-.121c.134.023.262.067.375.13.113.062.21.142.286.235a.767.767 0 01.153.307.691.691 0 01-.004.33.772.772 0 01-.159.304l-2.407 2.87c3.372 1.458 5.711 3.977 6.024 6.906v-.001zM20.058 7.999c0-.301-.147-.59-.41-.803a1.582 1.582 0 00-.99-.334c-.371 0-.728.12-.99.333-.264.212-.411.501-.412.803 0 .3.148.59.41.803.264.213.62.333.991.333.372 0 .728-.12.991-.333.263-.213.41-.502.41-.803v.001zm10.87 0a.954.954 0 00-.107-.435 1.154 1.154 0 00-.304-.37 1.461 1.461 0 00-.456-.246 1.69 1.69 0 00-1.073 0c-.17.057-.325.141-.456.247-.13.105-.233.23-.304.369a.954.954 0 00-.106.435c0 .302.147.591.41.805.264.213.62.333.993.333.372 0 .729-.12.992-.333.263-.214.41-.503.41-.805zm10.717 5.526c-1.588 0-2.877 1.06-2.877 2.37v9.256c0 1.31 1.289 2.37 2.877 2.37 1.589 0 2.872-1.062 2.872-2.37v-9.258c0-1.308-1.283-2.37-2.872-2.37v.002z" fill="#fff"/></g><defs><clipPath id="clip0"><path fill="#fff" transform="translate(0 .878)" d="M0 0h47.829v38.781H0z"/></clipPath></defs></svg>