<svg width="147" height="145" fill="none" xmlns="http://www.w3.org/2000/svg"><g filter="url(#filter0_d)"><path d="M73.281 26c-23.746 0-43 19.03-43 42.5s19.254 42.5 43 42.5 43-19.03 43-42.5-19.254-42.5-43-42.5zm13.831 43.155L66.15 84.229a.776.776 0 01-1.106-.22.753.753 0 01-.113-.397v-30.13a.752.752 0 01.418-.677.775.775 0 01.8.061l20.963 15.065a.75.75 0 01.32.612.742.742 0 01-.32.612z" fill="#fff"/></g><defs><filter id="filter0_d" x=".281" y="0" width="146" height="145" filterUnits="userSpaceOnUse" color-interpolation-filters="sRGB"><feFlood flood-opacity="0" result="BackgroundImageFix"/><feColorMatrix in="SourceAlpha" values="0 0 0 0 0 0 0 0 0 0 0 0 0 0 0 0 0 0 127 0"/><feOffset dy="4"/><feGaussianBlur stdDeviation="15"/><feColorMatrix values="0 0 0 0 0 0 0 0 0 0 0 0 0 0 0 0 0 0 0.25 0"/><feBlend in2="BackgroundImageFix" result="effect1_dropShadow"/><feBlend in="SourceGraphic" in2="effect1_dropShadow" result="shape"/></filter></defs></svg>