<svg width="28" height="32" fill="none" xmlns="http://www.w3.org/2000/svg"><path d="M20.182 20.722a6.335 6.335 0 013.035-.77h.003a.121.121 0 00.082-.21 13.838 13.838 0 00-3.866-2.482c-.015-.008-.03-.012-.045-.02a9.39 9.39 0 003.822-7.583c0-5.167-4.131-9.353-9.228-9.353-5.097 0-9.224 4.186-9.224 9.353a9.382 9.382 0 003.825 7.584c-.014.008-.03.011-.044.019a13.885 13.885 0 00-4.448 3.04A14.229 14.229 0 000 30.014a.305.305 0 00.182.285.294.294 0 00.116.023h2.234c.16 0 .294-.131.298-.294a11.316 11.316 0 013.266-7.704 11.005 11.005 0 017.893-3.315c2.114 0 4.142.592 5.89 1.7a.298.298 0 00.303.012zm-6.193-4.579a6.324 6.324 0 01-4.526-1.9 6.463 6.463 0 01-1.391-2.104 6.521 6.521 0 01-.485-2.482c0-1.731.668-3.36 1.876-4.586a6.311 6.311 0 014.526-1.9c1.711 0 3.314.674 4.526 1.9a6.462 6.462 0 011.39 2.103 6.5 6.5 0 01.485 2.483c0 1.73-.667 3.36-1.875 4.586a6.324 6.324 0 01-4.526 1.9zm13.713 8.976H24.57v-3.168a.3.3 0 00-.298-.301h-2.088a.3.3 0 00-.299.301v3.168h-3.131a.3.3 0 00-.299.302v2.112a.3.3 0 00.299.301h3.131v3.168a.3.3 0 00.299.302h2.088a.3.3 0 00.298-.302v-3.168h3.132a.3.3 0 00.298-.301V25.42a.3.3 0 00-.298-.302z" fill="#86B251"/></svg>