<svg width="202" height="54" fill="none" xmlns="http://www.w3.org/2000/svg"><path d="M198.113 53.936L182.125 33.1 202 14.426h-19.074l-18.874 18.673 15.508 20.837h18.553z" fill="url(#paint0_linear)"/><path d="M59.105 47.885l7.453-28.851H84.47l1.964 17.591 8.976-17.591h17.671l-2.965 15.988-8.535 12.863h-5.09l4.208-22.52-11.62 22.52h-9.417l-3.126-22.52-6.25 22.52h-11.18z" fill="url(#paint1_linear)"/><path d="M124.742 37.948h7.774l-1.843-10.138-5.931 10.138zm-18.913 9.937l19.034-28.851h15.427l5.61 22.36-6.612 6.491h-4.929l-.52-2.845h-13.344l-1.643 2.845h-13.023z" fill="url(#paint2_linear)"/><path d="M142.774 47.885l15.308-14.866-8.495-13.985h15.908l4.127 5.97-8.174 8.095 4.488 6.01-9.217 8.776h-13.945z" fill="url(#paint3_linear)"/><path d="M35.463 2.565l23.642 45.32h17.311L35.463 2.565z" fill="url(#paint4_linear)"/><path d="M35.423 2.404h-17.31l40.992 45.481-23.642-45.36-.04-.12z" fill="url(#paint5_linear)"/><path d="M43.558 30.454L25.646 10.54h17.07l17.912 19.915h-17.07z" fill="url(#paint6_linear)"/><path d="M99.217.08C42.677 4.93 6.29 32.139 6.29 32.139L0 47.846C38.388 6.773 93.246.642 99.217.08z" fill="url(#paint7_linear)"/><path d="M99.217.08c.16 0 .36-.04.52-.04.04-.04-.16 0-.52.04z" fill="url(#paint8_linear)"/><path d="M99.778 0c-.16 0-.36.04-.52.04C93.286.601 38.387 6.772.04 47.805h6.531L33.34 34.902C60.468 8.976 99.778 0 99.778 0z" fill="url(#paint9_linear)"/><path d="M99.217.08C93.247.643 38.348 6.814 0 47.847h21.999c3.366-4.728 7.213-9.016 11.3-12.903C60.468 8.977 99.778.04 99.778.04c-.2 0-.36 0-.561.04z" fill="url(#paint10_linear)"/><defs><linearGradient id="paint0_linear" x1="208.665" y1="33.701" x2="155.971" y2="35.103" gradientUnits="userSpaceOnUse"><stop stop-color="#9C9EA1"/><stop offset="1" stop-color="#F2F2F3"/></linearGradient><linearGradient id="paint1_linear" x1="80.658" y1="27.834" x2="279.412" y2="233.801" gradientUnits="userSpaceOnUse"><stop stop-color="#fff"/><stop offset="1" stop-color="#017DAD"/></linearGradient><linearGradient id="paint2_linear" x1="99.805" y1="9.357" x2="298.559" y2="215.325" gradientUnits="userSpaceOnUse"><stop stop-color="#fff"/><stop offset="1" stop-color="#017DAD"/></linearGradient><linearGradient id="paint3_linear" x1="115.882" y1="-6.157" x2="314.636" y2="199.811" gradientUnits="userSpaceOnUse"><stop stop-color="#CFEFFF"/><stop offset="1" stop-color="#017DAD"/></linearGradient><linearGradient id="paint4_linear" x1="55.932" y1="47.894" x2="55.932" y2="2.494" gradientUnits="userSpaceOnUse"><stop stop-color="#9C9EA1"/><stop offset="1" stop-color="#D2D3D4"/></linearGradient><linearGradient id="paint5_linear" x1="38.618" y1="47.894" x2="38.618" y2="2.423" gradientUnits="userSpaceOnUse"><stop stop-color="#9C9EA1"/><stop offset="1" stop-color="#F2F2F3"/></linearGradient><linearGradient id="paint6_linear" x1="37.813" y1="13.052" x2="48.693" y2="28.197" gradientUnits="userSpaceOnUse"><stop stop-color="#9C9EA1" stop-opacity="0"/><stop offset=".035" stop-color="#949699" stop-opacity=".066"/><stop offset=".221" stop-color="#78797B" stop-opacity=".42"/><stop offset=".39" stop-color="#686A6C" stop-opacity=".742"/><stop offset=".525" stop-color="#636567"/><stop offset=".666" stop-color="#666769" stop-opacity=".704"/><stop offset=".774" stop-color="#6F7072" stop-opacity=".476"/><stop offset=".871" stop-color="#7F8082" stop-opacity=".271"/><stop offset=".962" stop-color="#98999B" stop-opacity=".081"/><stop offset="1" stop-color="#A8AAAC" stop-opacity="0"/></linearGradient><linearGradient id="paint7_linear" x1=".022" y1="23.954" x2="99.766" y2="23.954" gradientUnits="userSpaceOnUse"><stop stop-color="#B7E0F0"/><stop offset="1" stop-color="#00527C"/></linearGradient><linearGradient id="paint8_linear" x1="-8.452" y1=".039" x2="111.24" y2=".039" gradientUnits="userSpaceOnUse"><stop stop-color="#CBEDFF"/><stop offset="1" stop-color="#017DAD"/></linearGradient><linearGradient id="paint9_linear" x1=".022" y1="23.93" x2="99.766" y2="23.93" gradientUnits="userSpaceOnUse"><stop stop-color="#CAEBFC"/><stop offset="1" stop-color="#017DAD"/></linearGradient><linearGradient id="paint10_linear" x1="-8.452" y1="23.932" x2="111.24" y2="23.932" gradientUnits="userSpaceOnUse"><stop stop-color="#9DC9DF"/><stop offset="1" stop-color="#017DAD"/></linearGradient></defs></svg>