<svg width="375" height="459" viewBox="0 0 375 459" fill="none" xmlns="http://www.w3.org/2000/svg">
<path d="M246.36 377.022L259.474 226.534L349.029 211.541L373.571 297.849L403.723 202.384L492.076 187.592L490.633 270.012L458.726 341.468L433.283 345.728L435.469 229.611L396.219 351.933L349.137 359.815L314.66 249.837L302.256 367.664L246.36 377.022Z" fill="white"/>
<path d="M90.2207 164.298L249.403 380.44L332.91 368.453L90.2207 164.298Z" fill="white"/>
<path d="M86.8369 166.027L3.33691 178.013L246.36 382.951L87.1499 166.616L86.8369 166.027Z" fill="white"/>
<path d="M154.035 302.886L47.8105 218.307L133.158 204.018L239.383 288.597L154.035 302.886Z" fill="white"/>
<path d="M398.422 104.426C125.477 170.102 -25.7337 339.145 -25.7337 339.145L-40.7183 426.287C106.276 182.848 369.649 111.619 398.422 104.426Z" fill="white"/>
<path d="M401.147 103.565C400.359 103.679 399.415 104.032 398.628 104.146C369.853 111.34 106.305 182.821 -40.5436 426.062L-8.44242 421.423L110.025 334.486C217.054 178.739 401.147 103.565 401.147 103.565Z" fill="white"/>
<path d="M398.468 104.375C369.693 111.569 106.143 183.051 -40.7059 426.296L-8.60454 421.657L67.4147 410.669C79.1614 383.387 93.7184 358.084 109.864 334.719C217.05 178.729 401.185 103.765 401.185 103.765C400.2 103.908 399.412 104.022 398.468 104.375Z" fill="white"/>
</svg>
